<?xml version="1.0" standalone="no"?>
<!DOCTYPE svg PUBLIC "-//W3C//DTD SVG 20010904//EN"
 "http://www.w3.org/TR/2001/REC-SVG-20010904/DTD/svg10.dtd">
<svg version="1.0" xmlns="http://www.w3.org/2000/svg"
 width="950.000000pt" height="220.000000pt" viewBox="239 233 951 217"
 preserveAspectRatio="xMidYMid meet">

<g transform="translate(0.000000,768.000000) scale(0.100000,-0.100000)"
fill="#000000" stroke="none">
<path d="M2690 4945 l0 -105 110 0 110 0 0 105 0 105 -110 0 -110 0 0 -105z"/>
<path d="M3407 4709 c-104 -24 -194 -95 -239 -187 -31 -63 -33 -73 -33 -172 1
-94 3 -110 27 -156 47 -90 121 -134 323 -194 121 -35 190 -67 219 -99 26 -29
33 -109 12 -149 -27 -53 -67 -67 -181 -66 -117 0 -177 20 -282 90 -36 24 -68
44 -72 44 -3 0 -25 -43 -48 -95 l-41 -96 32 -24 c51 -39 182 -95 259 -112 106
-22 292 -14 371 17 78 30 136 85 172 163 25 55 29 73 29 162 0 90 -3 106 -28
158 -47 95 -129 147 -317 202 -209 61 -265 104 -257 196 8 90 68 134 182 133
81 -1 158 -27 236 -80 28 -19 54 -34 59 -34 4 0 26 41 49 91 41 86 42 91 24
105 -37 29 -161 84 -223 98 -70 17 -212 19 -273 5z"/>
<path d="M2690 4100 l0 -610 116 0 116 0 -6 608 -5 607 -111 3 -110 3 0 -611z"/>
<path d="M4144 4673 c3 -21 6 -296 6 -610 l0 -573 110 0 110 0 0 181 0 180 63
74 c34 41 69 74 77 74 8 0 36 -34 62 -77 27 -42 101 -156 166 -252 l119 -175
122 -3 c68 -1 121 1 119 5 -1 4 -103 157 -225 339 l-221 331 147 184 c80 101
177 223 214 272 l68 87 -124 0 c-145 0 -116 20 -277 -190 -57 -74 -144 -184
-193 -244 -49 -61 -91 -116 -94 -123 -18 -46 -23 18 -23 272 l0 285 -116 0
-117 0 7 -37z"/>
<path d="M5614 4673 c-9 -20 -49 -125 -89 -232 -40 -108 -101 -268 -135 -356
-35 -88 -100 -258 -145 -378 l-83 -218 115 3 115 3 24 60 c13 33 30 71 36 84
9 16 86 60 265 149 l253 126 39 77 39 77 -67 -28 c-73 -31 -444 -170 -453
-170 -3 0 7 35 23 78 91 245 159 434 165 457 3 14 9 27 13 29 4 3 33 -70 65
-162 33 -92 65 -179 72 -194 l14 -26 90 31 c49 18 90 35 90 39 0 7 -114 305
-193 505 l-32 83 -103 0 -103 0 -15 -37z"/>
<path d="M6450 4100 l0 -610 116 0 116 0 -2 183 c-2 100 -2 194 -1 208 l1 27
109 1 109 2 32 -58 c18 -32 73 -127 123 -210 l89 -153 119 0 c65 0 119 2 119
5 0 3 -6 16 -14 28 -8 12 -65 112 -126 222 l-111 200 28 19 c132 93 203 258
175 408 -25 135 -113 254 -227 309 l-60 29 -297 0 -298 0 0 -610z m581 387
c81 -54 108 -186 58 -282 -43 -85 -56 -90 -245 -93 l-164 -3 0 38 c-1 21 -2
111 -4 201 l-3 162 162 0 c152 0 164 -1 196 -23z"/>
<path d="M7560 4100 l0 -610 110 0 110 0 0 204 0 204 188 4 187 3 67 33 c192
94 269 343 171 551 -38 80 -133 172 -206 199 -54 21 -75 22 -342 22 l-285 0 0
-610z m537 405 c79 -33 112 -92 113 -199 0 -91 -26 -147 -84 -181 -40 -24 -51
-25 -194 -25 l-152 0 0 205 0 204 108 4 c59 1 122 4 140 5 18 1 49 -5 69 -13z"/>
<path d="M8620 4100 l0 -610 400 0 401 0 -3 98 -3 97 -287 3 -288 2 0 159 0
158 53 7 c28 3 139 6 245 6 l192 0 0 73 c0 39 -3 82 -6 94 l-6 23 -239 -5
-239 -4 0 154 0 155 278 0 c153 0 281 2 283 4 2 2 3 47 1 100 l-3 96 -390 0
-389 0 0 -610z"/>
<path d="M9620 4100 l0 -610 385 0 385 0 0 100 0 100 -275 0 -275 0 0 510 0
510 -110 0 -110 0 0 -610z"/>
<path d="M10909 4664 c-11 -26 -56 -142 -99 -258 -44 -116 -140 -368 -213
-561 l-134 -350 110 -3 c61 -1 114 1 119 6 5 5 29 67 54 138 25 71 53 135 62
142 12 9 70 12 235 10 l219 -3 53 -145 53 -145 115 -3 115 -3 -45 118 c-24 65
-85 224 -134 353 -50 129 -110 287 -134 350 -25 63 -68 178 -98 255 l-52 140
-103 3 -102 3 -21 -47z m209 -457 c45 -127 82 -235 82 -239 0 -10 -340 -10
-340 -1 0 14 165 473 170 473 3 0 42 -105 88 -233z"/>
<path d="M6100 3944 c-8 -8 -44 -33 -82 -55 -37 -22 -68 -45 -68 -52 0 -7 28
-86 63 -177 l63 -165 113 -3 c105 -2 113 -1 107 15 -4 10 -44 116 -89 235 -45
120 -84 218 -88 218 -4 0 -12 -7 -19 -16z"/>
</g>
</svg>
